<svg width="87" height="75" viewBox="0 0 87 75" fill="none" xmlns="http://www.w3.org/2000/svg">
<path d="M49.7143 0C39.8255 0 30.3417 3.95088 23.3493 10.9835C16.3569 18.0161 12.4286 27.5544 12.4286 37.5H0L16.1157 53.7083L16.4057 54.2916L33.1429 37.5H20.7143C20.7143 21.375 33.6814 8.33333 49.7143 8.33333C65.7471 8.33333 78.7143 21.375 78.7143 37.5C78.7143 53.625 65.7471 66.6666 49.7143 66.6666C41.7186 66.6666 34.4686 63.375 29.2486 58.0833L23.3657 64C26.8184 67.4917 30.9243 70.2614 35.4465 72.1493C39.9688 74.0373 44.8179 75.0061 49.7143 75C59.6031 75 69.0868 71.0491 76.0793 64.0165C83.0717 56.9839 87 47.4456 87 37.5C87 27.5544 83.0717 18.0161 76.0793 10.9835C69.0868 3.95088 59.6031 1.48201e-07 49.7143 0ZM45.5714 20.8333V41.6666L63.1786 52.1666L66.3686 46.8333L51.7857 38.125V20.8333H45.5714Z" fill="#26C296"/>
</svg>
