<svg width="110" height="71" viewBox="0 0 110 71" fill="none" xmlns="http://www.w3.org/2000/svg">
<path d="M110 3.94432V35.4989C110.001 36.2795 109.771 37.0427 109.339 37.6919C108.907 38.3411 108.294 38.8471 107.575 39.1459C106.857 39.4447 106.067 39.5228 105.304 39.3704C104.542 39.2179 103.842 38.8418 103.292 38.2895L90.3575 25.2979L61.709 54.0668C61.3441 54.4335 60.9109 54.7245 60.434 54.923C59.9571 55.1215 59.4458 55.2236 58.9296 55.2236C58.4133 55.2236 57.9021 55.1215 57.4252 54.923C56.9483 54.7245 56.515 54.4335 56.1502 54.0668L39.2871 37.1309L6.71009 69.8441C5.97294 70.5842 4.97316 71 3.93068 71C2.8882 71 1.88841 70.5842 1.15127 69.8441C0.414124 69.104 0 68.1002 0 67.0535C0 66.0068 0.414124 65.003 1.15127 64.2629L36.5077 28.764C36.8726 28.3972 37.3058 28.1063 37.7827 27.9078C38.2597 27.7093 38.7709 27.6072 39.2871 27.6072C39.8034 27.6072 40.3146 27.7093 40.7915 27.9078C41.2684 28.1063 41.7017 28.3972 42.0665 28.764L58.9296 45.6999L84.8036 19.7216L71.8642 6.73493C71.3141 6.1833 70.9395 5.48021 70.7876 4.71468C70.6358 3.94914 70.7136 3.15559 71.0112 2.43448C71.3088 1.71336 71.8128 1.09712 72.4594 0.66375C73.106 0.230385 73.8661 -0.000613056 74.6436 1.22195e-06H106.072C107.113 1.22195e-06 108.113 0.415563 108.849 1.15527C109.586 1.89497 110 2.89822 110 3.94432Z" fill="#26C296"/>
</svg>
