<svg width="89" height="65" viewBox="0 0 89 65" fill="none" xmlns="http://www.w3.org/2000/svg">
<path d="M37.825 52.8125L60.6818 29.8594L54.8159 23.9687L37.7239 41.1328L29.2284 32.6016L23.4636 38.3906L37.825 52.8125ZM22.25 65C16.1144 65 10.8715 62.8672 6.52127 58.6016C2.17106 54.3359 -0.00269446 49.1224 2.50648e-06 42.9609C2.50648e-06 37.6797 1.58447 32.974 4.75341 28.8438C7.92235 24.7135 12.0689 22.0729 17.1932 20.9219C18.8788 14.6927 22.25 9.64844 27.3068 5.78906C32.3636 1.92969 38.0947 0 44.5 0C52.3886 0 59.0812 2.75979 64.5776 8.27938C70.074 13.799 72.8209 20.5183 72.8182 28.4375C77.4704 28.9792 81.3312 30.9942 84.4003 34.4825C87.4695 37.9708 89.0027 42.0496 89 46.7188C89 51.7969 87.2294 56.114 83.6883 59.67C80.1472 63.226 75.8496 65.0027 70.7954 65H22.25ZM22.25 56.875H70.7954C73.6273 56.875 76.0208 55.8932 77.9761 53.9297C79.9314 51.9661 80.9091 49.5625 80.9091 46.7188C80.9091 43.875 79.9314 41.4714 77.9761 39.5078C76.0208 37.5443 73.6273 36.5625 70.7954 36.5625H64.7273V28.4375C64.7273 22.8177 62.7544 18.0267 58.8088 14.0644C54.8631 10.1021 50.0935 8.12229 44.5 8.125C38.9038 8.125 34.1328 10.1061 30.1872 14.0684C26.2415 18.0307 24.27 22.8204 24.2727 28.4375H22.25C18.3394 28.4375 15.0019 29.8255 12.2375 32.6016C9.47311 35.3776 8.09091 38.7292 8.09091 42.6562C8.09091 46.5833 9.47311 49.9349 12.2375 52.7109C15.0019 55.487 18.3394 56.875 22.25 56.875Z" fill="#26C296"/>
</svg>
