<svg width="78" height="78" viewBox="0 0 78 78" fill="none" xmlns="http://www.w3.org/2000/svg">
<path d="M48.204 47.697C45.5969 49.799 42.3489 50.9452 39 50.9452C35.6511 50.9452 32.4031 49.799 29.796 47.697C28.9996 47.035 27.9728 46.7165 26.9415 46.8116C25.9102 46.9067 24.959 47.4075 24.297 48.204C23.635 49.0004 23.3165 50.0272 23.4116 51.0585C23.5067 52.0898 24.0076 53.041 24.804 53.703C28.7872 57.0281 33.8113 58.8496 39 58.8496C44.1887 58.8496 49.2128 57.0281 53.196 53.703C53.9925 53.041 54.4933 52.0898 54.5884 51.0585C54.6835 50.0272 54.365 49.0004 53.703 48.204C53.3752 47.8096 52.973 47.4837 52.5192 47.2448C52.0655 47.0059 51.5691 46.8587 51.0585 46.8116C50.0272 46.7165 49.0005 47.035 48.204 47.697ZM27.3 35.1C28.0714 35.1 28.8254 34.8713 29.4667 34.4427C30.1081 34.0142 30.608 33.4051 30.9031 32.6925C31.1983 31.9798 31.2756 31.1957 31.1251 30.4391C30.9746 29.6826 30.6032 28.9877 30.0577 28.4423C29.5123 27.8969 28.8174 27.5254 28.0609 27.3749C27.3043 27.2244 26.5202 27.3017 25.8075 27.5969C25.0949 27.892 24.4858 28.3919 24.0573 29.0333C23.6287 29.6746 23.4 30.4286 23.4 31.2C23.4 32.2343 23.8109 33.2263 24.5423 33.9577C25.2737 34.6891 26.2657 35.1 27.3 35.1ZM50.7 27.3C49.9287 27.3 49.1746 27.5287 48.5333 27.9573C47.8919 28.3858 47.3921 28.9949 47.0969 29.7075C46.8017 30.4202 46.7245 31.2043 46.8749 31.9608C47.0254 32.7174 47.3969 33.4123 47.9423 33.9577C48.4877 34.5031 49.1826 34.8746 49.9392 35.0251C50.6957 35.1755 51.4798 35.0983 52.1925 34.8031C52.9051 34.5079 53.5142 34.0081 53.9427 33.3667C54.3713 32.7254 54.6 31.9713 54.6 31.2C54.6 30.1656 54.1891 29.1737 53.4577 28.4423C52.7263 27.7109 51.7344 27.3 50.7 27.3ZM39 0C31.2865 0 23.7463 2.28731 17.3328 6.57268C10.9193 10.8581 5.92053 16.949 2.96872 24.0753C0.0168981 31.2017 -0.755432 39.0433 0.749391 46.6085C2.25421 54.1738 5.9686 61.1229 11.4229 66.5771C16.8771 72.0314 23.8262 75.7458 31.3915 77.2506C38.9567 78.7554 46.7983 77.9831 53.9247 75.0313C61.051 72.0795 67.1419 67.0807 71.4273 60.6672C75.7127 54.2537 78 46.7135 78 39C78 33.8784 76.9912 28.807 75.0313 24.0753C73.0714 19.3436 70.1986 15.0443 66.5772 11.4228C62.9557 7.80135 58.6564 4.92863 53.9247 2.9687C49.193 1.00876 44.1216 0 39 0ZM39 70.2C32.8292 70.2 26.797 68.3701 21.6662 64.9418C16.5354 61.5135 12.5364 56.6408 10.175 50.9397C7.81352 45.2387 7.19566 38.9654 8.39952 32.9132C9.60337 26.861 12.5749 21.3017 16.9383 16.9383C21.3017 12.5749 26.861 9.60336 32.9132 8.3995C38.9654 7.19564 45.2387 7.8135 50.9397 10.175C56.6408 12.5364 61.5135 16.5354 64.9418 21.6662C68.3701 26.797 70.2 32.8292 70.2 39C70.2 47.2747 66.9129 55.2106 61.0617 61.0617C55.2106 66.9128 47.2748 70.2 39 70.2Z" fill="#26C296"/>
</svg>
