<svg width="88" height="88" viewBox="0 0 88 88" fill="none" xmlns="http://www.w3.org/2000/svg">
<path d="M44 88L30.9558 75.1504H12.8496V57.0443L0 44L12.8496 30.9558V12.8496H30.9558L44 0L57.0443 12.8496H75.1504V30.9558L88 44L75.1504 57.0443V75.1504H57.0443L44 88ZM44 77.0973L53.7345 67.3628H67.3628V53.7345L77.0973 44L67.3628 34.2655V20.6372H53.7345L44 10.9027L34.2655 20.6372H20.6372V34.2655L10.9027 44L20.6372 53.7345V67.3628H34.2655L44 77.0973ZM32.6106 60.5487L44 53.6372L55.3894 60.5487L52.3717 47.6018L62.4956 38.8407L49.1593 37.7699L44 25.5044L38.8407 37.7699L25.5044 38.8407L35.6283 47.6018L32.6106 60.5487Z" fill="#26C296"/>
</svg>
