<svg width="52" height="57" viewBox="0 0 52 57" fill="none" xmlns="http://www.w3.org/2000/svg">
<path d="M26 5.7C22.9353 5.7 19.9961 6.90107 17.829 9.03898C15.6619 11.1769 14.4444 14.0765 14.4444 17.1C14.4444 20.1235 15.6619 23.0231 17.829 25.161C19.9961 27.2989 22.9353 28.5 26 28.5C29.0647 28.5 32.0039 27.2989 34.171 25.161C36.3381 23.0231 37.5556 20.1235 37.5556 17.1C37.5556 14.0765 36.3381 11.1769 34.171 9.03898C32.0039 6.90107 29.0647 5.7 26 5.7ZM8.66667 17.1C8.66667 12.5648 10.4929 8.21535 13.7435 5.00847C16.9941 1.8016 21.4029 0 26 0C30.5971 0 35.0059 1.8016 38.2565 5.00847C41.5071 8.21535 43.3333 12.5648 43.3333 17.1C43.3333 21.6352 41.5071 25.9847 38.2565 29.1915C35.0059 32.3984 30.5971 34.2 26 34.2C21.4029 34.2 16.9941 32.3984 13.7435 29.1915C10.4929 25.9847 8.66667 21.6352 8.66667 17.1ZM14.4444 45.6C12.1459 45.6 9.9415 46.5008 8.31619 48.1042C6.69087 49.7077 5.77778 51.8824 5.77778 54.15C5.77778 54.9059 5.47341 55.6308 4.93164 56.1653C4.38987 56.6997 3.65507 57 2.88889 57C2.12271 57 1.38791 56.6997 0.846136 56.1653C0.304364 55.6308 0 54.9059 0 54.15C0 50.3707 1.52182 46.7461 4.23068 44.0737C6.93954 41.4013 10.6135 39.9 14.4444 39.9H37.5556C41.3865 39.9 45.0605 41.4013 47.7693 44.0737C50.4782 46.7461 52 50.3707 52 54.15C52 54.9059 51.6956 55.6308 51.1539 56.1653C50.6121 56.6997 49.8773 57 49.1111 57C48.3449 57 47.6101 56.6997 47.0684 56.1653C46.5266 55.6308 46.2222 54.9059 46.2222 54.15C46.2222 51.8824 45.3091 49.7077 43.6838 48.1042C42.0585 46.5008 39.8541 45.6 37.5556 45.6H14.4444Z" fill="#2648C2"/>
</svg>
