<svg width="70" height="63" viewBox="0 0 70 63" fill="none" xmlns="http://www.w3.org/2000/svg">
<path d="M12.7273 25.2V63H0V25.2H12.7273ZM25.4545 63C23.7668 63 22.1482 62.3363 20.9548 61.1548C19.7614 59.9733 19.0909 58.3709 19.0909 56.7V25.2C19.0909 23.4675 19.7909 21.8925 20.9682 20.7585L41.9045 0L45.2773 3.339C46.1364 4.1895 46.6773 5.355 46.6773 6.6465L46.5818 7.6545L43.5591 22.05H63.6364C65.3241 22.05 66.9427 22.7138 68.1361 23.8952C69.3295 25.0767 70 26.6791 70 28.35V34.65C70 35.469 69.8409 36.225 69.5546 36.9495L59.9455 59.157C58.9909 61.425 56.7318 63 54.0909 63H25.4545ZM25.4545 56.7H54.1864L63.6364 34.65V28.35H35.6682L39.2636 11.592L25.4545 25.2945V56.7Z" fill="#26C296"/>
</svg>
