<svg width="95" height="95" viewBox="0 0 95 95" fill="none" xmlns="http://www.w3.org/2000/svg">
<path d="M85.5 53.7278V42.2222C85.5 31.0242 81.4964 20.2848 74.3701 12.3666C67.2437 4.4484 57.5782 0 47.5 0C37.4218 0 27.7563 4.4484 20.6299 12.3666C13.5036 20.2848 9.5 31.0242 9.5 42.2222V53.7278C6.72814 54.8167 4.32724 56.8315 2.62646 59.496C0.925673 62.1606 0.00826268 65.3445 0 68.6111V79.1667C0 83.3659 1.50134 87.3932 4.17373 90.3625C6.84612 93.3318 10.4707 95 14.25 95H28.5C29.7598 95 30.968 94.444 31.8588 93.4542C32.7496 92.4644 33.25 91.122 33.25 89.7222V58.0556C33.25 56.6558 32.7496 55.3134 31.8588 54.3236C30.968 53.3338 29.7598 52.7778 28.5 52.7778H19V42.2222C19 33.8237 22.0027 25.7692 27.3475 19.8305C32.6922 13.8919 39.9413 10.5556 47.5 10.5556C55.0587 10.5556 62.3078 13.8919 67.6525 19.8305C72.9973 25.7692 76 33.8237 76 42.2222V52.7778H66.5C65.2402 52.7778 64.032 53.3338 63.1412 54.3236C62.2504 55.3134 61.75 56.6558 61.75 58.0556V89.7222C61.75 91.122 62.2504 92.4644 63.1412 93.4542C64.032 94.444 65.2402 95 66.5 95H80.75C84.5293 95 88.1539 93.3318 90.8263 90.3625C93.4987 87.3932 95 83.3659 95 79.1667V68.6111C94.9917 65.3445 94.0743 62.1606 92.3735 59.496C90.6728 56.8315 88.2719 54.8167 85.5 53.7278ZM23.75 63.3333V84.4444H14.25C12.9902 84.4444 11.782 83.8884 10.8912 82.8986C10.0004 81.9088 9.5 80.5664 9.5 79.1667V68.6111C9.5 67.2114 10.0004 65.8689 10.8912 64.8792C11.782 63.8894 12.9902 63.3333 14.25 63.3333H23.75ZM85.5 79.1667C85.5 80.5664 84.9996 81.9088 84.1088 82.8986C83.218 83.8884 82.0098 84.4444 80.75 84.4444H71.25V63.3333H80.75C82.0098 63.3333 83.218 63.8894 84.1088 64.8792C84.9996 65.8689 85.5 67.2114 85.5 68.6111V79.1667Z" fill="#26C296"/>
</svg>
