<svg width="95" height="95" viewBox="0 0 95 95" fill="none" xmlns="http://www.w3.org/2000/svg">
<path fill-rule="evenodd" clip-rule="evenodd" d="M9.06159 19.5846C3.15669 27.6931 -0.0167278 37.4693 6.6315e-05 47.5C6.6315e-05 71.8444 18.3131 91.9113 41.9169 94.6736C43.77 94.8909 45.6342 94.9999 47.5 95C60.0978 95 72.1796 89.9955 81.0875 81.0876C89.9955 72.1796 94.9999 60.0978 94.9999 47.5C95.009 40.8758 93.6281 34.3234 90.9466 28.2662C87.2197 19.8535 81.1301 12.7041 73.4175 7.68633C65.7049 2.66855 56.7012 -0.001664 47.5 1.40828e-05C40.1249 -0.00566894 32.85 1.70873 26.2535 5.00699C19.657 8.30526 13.9206 13.0965 9.50005 19C9.33463 19.1797 9.18774 19.3755 9.06159 19.5846ZM12.0626 28.5146C9.05645 34.1269 7.42622 40.373 7.30612 46.7385C7.18603 53.1041 8.57952 59.4072 11.3719 65.1289C14.1642 70.8506 18.2756 75.8273 23.3674 79.6492C28.4593 83.4712 34.3862 86.0292 40.66 87.1126L51.5046 68.3123C47.0254 69.1753 42.3873 68.57 38.2796 66.5864C34.1719 64.6028 30.8139 61.3467 28.7046 57.3021L12.0675 28.5195L12.0626 28.5146ZM16.6129 21.7818L27.4672 40.5626C28.911 36.3994 31.6161 32.7895 35.2063 30.2348C38.7966 27.6801 43.0936 26.3074 47.5 26.3077H81.6561C78.0516 20.4946 73.0222 15.6982 67.0449 12.3732C61.0675 9.04813 54.34 7.30456 47.5 7.3077C41.6047 7.30135 35.7804 8.59465 30.4418 11.0955C25.1032 13.5964 20.3815 17.2434 16.6129 21.7769V21.7818ZM85.2271 33.6154H63.5087C66.8579 37.465 68.6993 42.3974 68.6923 47.5C68.6991 51.5181 67.5582 55.4547 65.4038 58.8464L48.7764 87.6728C55.14 87.4721 61.3648 85.7626 66.9382 82.6849C72.5116 79.6073 77.2742 75.2497 80.8336 69.9709C84.3931 64.6921 86.6476 58.6433 87.4114 52.3226C88.1753 46.0019 87.4266 39.5901 85.2271 33.6154ZM47.5 33.6154C43.8176 33.6154 40.286 35.0782 37.6821 37.6821C35.0783 40.286 33.6154 43.8176 33.6154 47.5C33.6154 51.1824 35.0783 54.714 37.6821 57.3179C40.286 59.9218 43.8176 61.3846 47.5 61.3846C51.1824 61.3846 54.714 59.9218 57.3179 57.3179C59.9218 54.714 61.3846 51.1824 61.3846 47.5C61.3846 43.8176 59.9218 40.286 57.3179 37.6821C54.714 35.0782 51.1824 33.6154 47.5 33.6154Z" fill="#26C296"/>
</svg>
