<svg width="96" height="96" viewBox="0 0 96 96" fill="none" xmlns="http://www.w3.org/2000/svg">
<rect width="96" height="96" rx="30" fill="#F6E7E9"/>
<path fill-rule="evenodd" clip-rule="evenodd" d="M32.9289 54.9289C34.8043 53.0536 37.3478 52 40 52H56C58.6522 52 61.1957 53.0536 63.0711 54.9289C64.9464 56.8043 66 59.3478 66 62V66C66 67.1046 65.1046 68 64 68C62.8954 68 62 67.1046 62 66V62C62 60.4087 61.3679 58.8826 60.2426 57.7574C59.1174 56.6321 57.5913 56 56 56H40C38.4087 56 36.8826 56.6321 35.7574 57.7574C34.6321 58.8826 34 60.4087 34 62V66C34 67.1046 33.1046 68 32 68C30.8954 68 30 67.1046 30 66V62C30 59.3478 31.0536 56.8043 32.9289 54.9289Z" fill="#EA605A"/>
<path fill-rule="evenodd" clip-rule="evenodd" d="M48 32C44.6863 32 42 34.6863 42 38C42 41.3137 44.6863 44 48 44C51.3137 44 54 41.3137 54 38C54 34.6863 51.3137 32 48 32ZM38 38C38 32.4772 42.4772 28 48 28C53.5229 28 58 32.4772 58 38C58 43.5228 53.5229 48 48 48C42.4772 48 38 43.5228 38 38Z" fill="#EA605A"/>
</svg>
