<svg width="67" height="67" viewBox="0 0 67 67" fill="none" xmlns="http://www.w3.org/2000/svg">
<circle cx="33.2965" cy="33.2965" r="33.2965" fill="#2DC499"/>
<path d="M33.7521 28.5069C32.5182 28.5069 31.3349 29.0115 30.4624 29.9096C29.5899 30.8078 29.0997 32.0259 29.0997 33.2961C29.0997 34.5663 29.5899 35.7845 30.4624 36.6826C31.3349 37.5808 32.5182 38.0854 33.7521 38.0854C34.986 38.0854 36.1694 37.5808 37.0419 36.6826C37.9144 35.7845 38.4045 34.5663 38.4045 33.2961C38.4045 32.0259 37.9144 30.8078 37.0419 29.9096C36.1694 29.0115 34.986 28.5069 33.7521 28.5069ZM33.7521 25.3141C35.8086 25.3141 37.7809 26.155 39.235 27.652C40.6892 29.1489 41.5061 31.1792 41.5061 33.2961C41.5061 35.4131 40.6892 37.4434 39.235 38.9403C37.7809 40.4372 35.8086 41.2782 33.7521 41.2782C31.6956 41.2782 29.7234 40.4372 28.2692 38.9403C26.8151 37.4434 25.9981 35.4131 25.9981 33.2961C25.9981 31.1792 26.8151 29.1489 28.2692 27.652C29.7234 26.155 31.6956 25.3141 33.7521 25.3141ZM43.8323 24.915C43.8323 25.4442 43.6281 25.9518 43.2645 26.326C42.901 26.7002 42.4079 26.9105 41.8938 26.9105C41.3797 26.9105 40.8866 26.7002 40.5231 26.326C40.1595 25.9518 39.9553 25.4442 39.9553 24.915C39.9553 24.3857 40.1595 23.8782 40.5231 23.5039C40.8866 23.1297 41.3797 22.9195 41.8938 22.9195C42.4079 22.9195 42.901 23.1297 43.2645 23.5039C43.6281 23.8782 43.8323 24.3857 43.8323 24.915ZM33.7521 20.5249C29.9154 20.5249 29.2889 20.536 27.504 20.6174C26.2881 20.6765 25.4724 20.8441 24.7156 21.1474C24.0823 21.3868 23.5097 21.7705 23.0408 22.2697C22.5554 22.7525 22.1822 23.3418 21.949 23.9938C21.6543 24.7761 21.4915 25.6142 21.4357 26.8642C21.355 28.6266 21.3442 29.2428 21.3442 33.2961C21.3442 37.2472 21.355 37.8906 21.4341 39.7281C21.4915 40.978 21.6543 41.8194 21.9474 42.5968C22.2111 43.2912 22.5212 43.7909 23.0361 44.3209C23.5587 44.8573 24.0441 45.1782 24.711 45.4432C25.4771 45.7481 26.2928 45.9173 27.5024 45.9748C29.2145 46.0578 29.8131 46.0674 33.7506 46.0674C37.5888 46.0674 38.2138 46.0562 39.9987 45.9748C41.2115 45.9157 42.0272 45.7481 42.7855 45.4464C43.4183 45.2059 43.9906 44.8224 44.4604 44.3241C44.983 43.7877 45.2947 43.2881 45.5521 42.6C45.8468 41.8146 46.0112 40.9749 46.067 39.7265C46.1476 37.9656 46.157 37.3478 46.157 33.2961C46.157 29.3466 46.1461 28.7017 46.067 26.8642C46.0096 25.6158 45.8452 24.7729 45.5521 23.9938C45.3184 23.3425 44.9459 22.7534 44.4619 22.2697C43.9932 21.7698 43.4206 21.3856 42.7871 21.1459C42.0272 20.8425 41.2115 20.6749 39.9987 20.6174C38.2882 20.5344 37.6911 20.5249 33.7521 20.5249ZM33.7521 17.332C37.9656 17.332 38.4914 17.348 40.1461 17.4278C41.7961 17.5076 42.922 17.7742 43.9098 18.1701C44.9334 18.5756 45.7956 19.1248 46.6579 20.0108C47.4464 20.8088 48.0566 21.7742 48.4459 22.8396C48.829 23.8566 49.0895 25.0156 49.167 26.7157C49.2399 28.4175 49.2601 28.9587 49.2601 33.2961C49.2601 37.6336 49.2446 38.1748 49.167 39.8765C49.0895 41.5767 48.829 42.7341 48.4459 43.7526C48.0577 44.8186 47.4474 45.7842 46.6579 46.5814C45.8824 47.3929 44.9447 48.021 43.9098 48.4221C42.922 48.8164 41.7961 49.0846 40.1461 49.1644C38.4914 49.2395 37.9656 49.2602 33.7521 49.2602C29.5386 49.2602 29.0129 49.2443 27.3582 49.1644C25.7081 49.0846 24.5838 48.8164 23.5944 48.4221C22.559 48.0222 21.621 47.3939 20.8464 46.5814C20.0577 45.7835 19.4475 44.8181 19.0583 43.7526C18.6737 42.7357 18.4147 41.5767 18.3372 39.8765C18.2628 38.1748 18.2441 37.6336 18.2441 33.2961C18.2441 28.9587 18.2596 28.4175 18.3372 26.7157C18.4147 25.014 18.6737 23.8582 19.0583 22.8396C19.4464 21.7735 20.0567 20.8079 20.8464 20.0108C21.6213 19.1986 22.5591 18.5704 23.5944 18.1701C24.5823 17.7742 25.7066 17.5076 27.3582 17.4278C29.0129 17.3528 29.5386 17.332 33.7521 17.332Z" fill="white"/>
</svg>
