<svg width="39" height="38" viewBox="0 0 39 38" fill="none" xmlns="http://www.w3.org/2000/svg">
<path d="M35.1788 25.9134L29.6643 25.3C29.0159 25.2257 28.3587 25.2957 27.742 25.5045C27.1253 25.7134 26.5652 26.0557 26.1038 26.5057L22.1091 30.398C15.946 27.3439 10.9365 22.4628 7.802 16.4577L11.8184 12.5442C12.752 11.6346 13.2079 10.3654 13.0559 9.07498L12.4263 3.74423C12.3032 2.71229 11.795 1.7605 10.9983 1.07006C10.2016 0.379626 9.17215 -0.00123169 8.10594 2.9926e-06H4.35005C1.89678 2.9926e-06 -0.143997 1.98846 0.00797525 4.37884C1.15862 22.4442 15.9868 36.8711 34.5057 37.9922C36.959 38.1403 38.9998 36.1518 38.9998 33.7615V30.1019C39.0215 27.9653 37.3715 26.1673 35.1788 25.9134Z" fill="white"/>
</svg>
