<svg width="35" height="47" viewBox="0 0 35 47" fill="none" xmlns="http://www.w3.org/2000/svg">
<path d="M17.5 10.575C19.1576 10.575 20.7473 11.194 21.9194 12.2957C23.0915 13.3975 23.75 14.8919 23.75 16.45C23.75 17.2215 23.5883 17.9855 23.2742 18.6983C22.9602 19.4111 22.4998 20.0587 21.9194 20.6043C21.3391 21.1498 20.6501 21.5825 19.8918 21.8778C19.1335 22.173 18.3208 22.325 17.5 22.325C15.8424 22.325 14.2527 21.706 13.0806 20.6043C11.9085 19.5025 11.25 18.0081 11.25 16.45C11.25 14.8919 11.9085 13.3975 13.0806 12.2957C14.2527 11.194 15.8424 10.575 17.5 10.575ZM17.5 0C22.1413 0 26.5925 1.73312 29.8744 4.81809C33.1563 7.90307 35 12.0872 35 16.45C35 28.7875 17.5 47 17.5 47C17.5 47 0 28.7875 0 16.45C0 12.0872 1.84374 7.90307 5.12563 4.81809C8.40752 1.73312 12.8587 0 17.5 0ZM17.5 4.7C14.1848 4.7 11.0054 5.93794 8.66117 8.14149C6.31696 10.345 5 13.3337 5 16.45C5 18.8 5 23.5 17.5 39.2685C30 23.5 30 18.8 30 16.45C30 13.3337 28.683 10.345 26.3388 8.14149C23.9946 5.93794 20.8152 4.7 17.5 4.7Z" fill="white"/>
</svg>
